<svg width="46" height="46" viewBox="0 0 46 46" fill="none" xmlns="http://www.w3.org/2000/svg">
<path d="M33.6183 15.9275C34.8688 15.9275 36.0681 15.4307 36.9523 14.5465C37.8366 13.6623 38.3333 12.463 38.3333 11.2125C38.3333 9.962 37.8366 8.76272 36.9523 7.87849C36.0681 6.99426 34.8688 6.4975 33.6183 6.4975C32.3678 6.4975 31.1686 6.99426 30.2843 7.87849C29.4001 8.76272 28.9033 9.962 28.9033 11.2125C28.9033 12.463 29.4001 13.6623 30.2843 14.5465C31.1686 15.4307 32.3678 15.9275 33.6183 15.9275V15.9275ZM12.3817 15.9275C13.6322 15.9275 14.8314 15.4307 15.7157 14.5465C16.5999 13.6623 17.0967 12.463 17.0967 11.2125C17.0967 9.962 16.5999 8.76272 15.7157 7.87849C14.8314 6.99426 13.6322 6.4975 12.3817 6.4975C11.1312 6.4975 9.93189 6.99426 9.04766 7.87849C8.16343 8.76272 7.66667 9.962 7.66667 11.2125C7.66667 12.463 8.16343 13.6623 9.04766 14.5465C9.93189 15.4307 11.1312 15.9275 12.3817 15.9275V15.9275ZM33.6183 39.5025C34.2375 39.5025 34.8506 39.3805 35.4227 39.1436C35.9947 38.9066 36.5145 38.5593 36.9523 38.1215C37.3902 37.6837 37.7375 37.1639 37.9744 36.5919C38.2114 36.0198 38.3333 35.4067 38.3333 34.7875C38.3333 34.1683 38.2114 33.5552 37.9744 32.9831C37.7375 32.4111 37.3902 31.8913 36.9523 31.4535C36.5145 31.0157 35.9947 30.6684 35.4227 30.4314C34.8506 30.1945 34.2375 30.0725 33.6183 30.0725C32.3678 30.0725 31.1686 30.5693 30.2843 31.4535C29.4001 32.3377 28.9033 33.537 28.9033 34.7875C28.9033 36.038 29.4001 37.2373 30.2843 38.1215C31.1686 39.0057 32.3678 39.5025 33.6183 39.5025V39.5025ZM12.3817 39.5025C13.0009 39.5025 13.614 39.3805 14.186 39.1436C14.7581 38.9066 15.2778 38.5593 15.7157 38.1215C16.1535 37.6837 16.5008 37.1639 16.7378 36.5919C16.9747 36.0198 17.0967 35.4067 17.0967 34.7875C17.0967 34.1683 16.9747 33.5552 16.7378 32.9831C16.5008 32.4111 16.1535 31.8913 15.7157 31.4535C15.2778 31.0157 14.7581 30.6684 14.186 30.4314C13.614 30.1945 13.0009 30.0725 12.3817 30.0725C11.1312 30.0725 9.93189 30.5693 9.04766 31.4535C8.16343 32.3377 7.66667 33.537 7.66667 34.7875C7.66667 36.038 8.16343 37.2373 9.04766 38.1215C9.93189 39.0057 11.1312 39.5025 12.3817 39.5025V39.5025Z" stroke="#212121" stroke-width="1.5" stroke-miterlimit="10" stroke-linecap="round" stroke-linejoin="round"/>
</svg>
