<svg width="37" height="37" viewBox="0 0 37 37" fill="none" xmlns="http://www.w3.org/2000/svg">
<path d="M32.3904 17.2975V24.2196C32.3904 31.1417 29.6308 33.9167 22.6933 33.9167H14.3837C13.4896 33.9167 12.6725 33.8704 11.9171 33.7625M4.68665 23.9267V17.2975M18.5462 18.5C21.3675 18.5 23.4487 16.2029 23.1712 13.3817L22.1383 3.08333H14.9387L13.9058 13.3817C13.6283 16.2029 15.725 18.5 18.5462 18.5Z" stroke="#212121" stroke-width="1.5" stroke-linecap="round" stroke-linejoin="round"/>
<path d="M28.2588 18.5C31.3729 18.5 33.6546 15.9717 33.3463 12.8729L32.9146 8.63333C32.3596 4.62499 30.8179 3.08333 26.7788 3.08333H22.0767L23.1558 13.8904C23.4333 16.4342 25.715 18.5 28.2588 18.5ZM8.74126 18.5C11.285 18.5 13.5821 16.4342 13.8288 13.8904L14.1679 10.4833L14.9079 3.08333H10.2058C6.16668 3.08333 4.62501 4.62499 4.07001 8.63333L3.63834 12.8729C3.33001 15.9717 5.6271 18.5 8.74126 18.5Z" stroke="#212121" stroke-width="1.5" stroke-linecap="round" stroke-linejoin="round"/>
<path d="M10.0054 29.2608H5.41127M7.70835 27.01V31.6196M13.875 29.2917C13.875 30.4479 13.5513 31.5425 12.9809 32.4675C12.6879 32.9608 12.3334 33.4079 11.9171 33.7625C11.8709 33.8242 11.8246 33.8704 11.7629 33.9167C10.6838 34.8879 9.26544 35.4583 7.70835 35.4583C5.82752 35.4583 4.1471 34.6104 3.0371 33.2846C3.00627 33.2383 2.96002 33.2075 2.92919 33.1613C2.74419 32.9454 2.5746 32.7142 2.43585 32.4675C1.86544 31.5425 1.54169 30.4479 1.54169 29.2917C1.54169 27.3492 2.43585 25.6071 3.85419 24.4817C4.11627 24.2658 4.39377 24.0808 4.68669 23.9267C5.58085 23.4179 6.61377 23.125 7.70835 23.125C9.25002 23.125 10.6375 23.68 11.7167 24.6204C11.9017 24.7592 12.0713 24.9288 12.2254 25.0983C13.2429 26.2083 13.875 27.6729 13.875 29.2917Z" stroke="#212121" stroke-width="1.5" stroke-miterlimit="10" stroke-linecap="round" stroke-linejoin="round"/>
</svg>
