<svg width="37" height="37" viewBox="0 0 37 37" fill="none" xmlns="http://www.w3.org/2000/svg">
<path d="M19.3171 31.4808H9.57375C4.70208 31.4808 3.08333 28.2433 3.08333 24.9904V12.0096C3.08333 7.13791 4.70208 5.51917 9.57375 5.51917H19.3171C24.1887 5.51917 25.8075 7.13791 25.8075 12.0096V24.9904C25.8075 29.8621 24.1733 31.4808 19.3171 31.4808V31.4808Z" stroke="#212121" stroke-width="1.5" stroke-linecap="round" stroke-linejoin="round"/>
<path d="M30.0933 26.3625L25.8075 23.3562V13.6283L30.0933 10.6221C32.19 9.15749 33.9167 10.0517 33.9167 12.6262V24.3737C33.9167 26.9483 32.19 27.8425 30.0933 26.3625V26.3625ZM17.7292 16.9583C18.3425 16.9583 18.9307 16.7147 19.3643 16.281C19.798 15.8473 20.0417 15.2591 20.0417 14.6458C20.0417 14.0325 19.798 13.4443 19.3643 13.0106C18.9307 12.577 18.3425 12.3333 17.7292 12.3333C17.1159 12.3333 16.5277 12.577 16.094 13.0106C15.6603 13.4443 15.4167 14.0325 15.4167 14.6458C15.4167 15.2591 15.6603 15.8473 16.094 16.281C16.5277 16.7147 17.1159 16.9583 17.7292 16.9583Z" stroke="#212121" stroke-width="1.5" stroke-linecap="round" stroke-linejoin="round"/>
</svg>
